<?xml version="1.0" encoding="UTF-8"?><svg xmlns="http://www.w3.org/2000/svg" xmlns:xlink="http://www.w3.org/1999/xlink" viewBox="0 0 500 500"><defs><style>.cls-1{fill:url(#linear-gradient-2);}.cls-2{fill:#fff;}.cls-3{fill:#6b3849;}.cls-4{fill:url(#linear-gradient-6);}.cls-5{fill:url(#linear-gradient-5);}.cls-6{fill:url(#linear-gradient-7);}.cls-7{fill:url(#linear-gradient-9);}.cls-8{fill:url(#linear-gradient-3);}.cls-9{fill:url(#linear-gradient);}.cls-10{fill:url(#linear-gradient-4);}.cls-11{fill:url(#linear-gradient-8);}</style><linearGradient id="linear-gradient" x1="249.95" y1="143.91" x2="249.95" y2="110.28" gradientUnits="userSpaceOnUse"><stop offset="0" stop-color="#f22895"/><stop offset="1" stop-color="#ffa849"/></linearGradient><linearGradient id="linear-gradient-2" x1="253.46" y1="105.58" x2="255.15" y2="124.75" xlink:href="#linear-gradient"/><linearGradient id="linear-gradient-3" x1="172.08" y1="294.23" x2="251.25" y2="294.23" gradientUnits="userSpaceOnUse"><stop offset="0" stop-color="#ffd99b"/><stop offset="1" stop-color="#ff56b9"/></linearGradient><linearGradient id="linear-gradient-4" x1="204.72" y1="263.1" x2="288.81" y2="263.1" gradientTransform="translate(514.13 26.25) rotate(-180) scale(.91 -1.02)" xlink:href="#linear-gradient-3"/><linearGradient id="linear-gradient-5" x1="206.73" y1="222.87" x2="206.73" y2="287.11" xlink:href="#linear-gradient"/><linearGradient id="linear-gradient-6" x1="207.19" y1="154.97" x2="279.96" y2="154.97" xlink:href="#linear-gradient"/><linearGradient id="linear-gradient-7" x1="278.55" y1="147.95" x2="278.55" y2="204.97" xlink:href="#linear-gradient"/><linearGradient id="linear-gradient-8" x1="201.4" y1="147.96" x2="301.73" y2="259.72" xlink:href="#linear-gradient-3"/><linearGradient id="linear-gradient-9" x1="257.11" y1="177.24" x2="257.11" y2="198.43" xlink:href="#linear-gradient"/></defs><g id="BACKGROUND"><rect class="cls-2" x="-.05" y="0" width="500" height="500"/></g><g id="TEXTS"><g><g><g><path class="cls-9" d="M251.57,152.04c-.13,0-.26,0-.39-.02-2.5-.21-4.35-2.41-4.14-4.91,.2-2.33-.06-4.08-.31-4.63-.53-.51-1.12-.91-1.97-1.48-1.74-1.18-4.13-2.8-7.74-6.57-5.65-5.89-5.68-12.55-5.62-13.96,.07-10.17,8.37-18.42,18.55-18.42s18.55,8.32,18.55,18.55c0,2.51-2.03,4.54-4.54,4.54s-4.54-2.03-4.54-4.54c0-5.22-4.25-9.47-9.47-9.47s-9.47,4.25-9.47,9.47c0,.11,0,.22-.01,.33,0,.09-.12,3.85,3.11,7.22,2.95,3.07,4.72,4.28,6.28,5.34,1.1,.74,2.23,1.51,3.4,2.69,2.91,2.92,3.15,7.98,2.83,11.72-.2,2.37-2.19,4.15-4.52,4.15Z"/><path class="cls-1" d="M249.95,111.12c5.22,0,9.47,4.25,9.47,9.47,0,2.51,2.03,4.54,4.54,4.54,1.96,0,3.61-1.25,4.25-2.99,.15-.76,.23-1.55,.25-2.35-.11-2.56-.74-4.99-1.79-7.18-2.38-4.2-6.89-7.04-12.07-7.04-7.24,0-13.18,5.55-13.81,12.62,1.07-4.06,4.76-7.07,9.15-7.07Z"/></g><path class="cls-8" d="M251.25,288.57l-4.78,3.52c-12.09,8.91-34.62,10.57-50.32,3.71-10.17-4.44-18.5-11.37-17.34-18.13l-.46,.34c-12.09,8.91-5.6,21.69,10.1,28.55,15.7,6.86,38.23,5.2,50.32-3.71l12.49-9.2v-5.08Z"/><path class="cls-10" d="M251.25,288.46l4.62,3.59c11.69,9.07,33.47,10.76,48.64,3.78,9.84-4.53,17.89-11.58,16.76-18.46l.45,.35c11.69,9.07,5.42,22.09-9.76,29.08-15.18,6.99-36.96,5.29-48.64-3.78l-12.07-9.37v-5.18Z"/><path class="cls-5" d="M242.79,212.14h-5.5s-6.05-.12-8.64,2.46c-2.58,2.58-54.41,58.37-54.41,58.37-6.86,8.91-3.18,21.69,5.73,28.55,.42,.32,.85,.6,1.28,.89-4.61-7.04-4.53-16.5,.89-23.55l60.64-66.71Z"/><path class="cls-4" d="M288.53,148.62h-76.49c-7.53,0-12.57,2-13.95,6.01-.74,2.15-.41,4.41,.68,6.68h101.56c4.73-7.33,.37-12.69-11.8-12.69Z"/><path class="cls-6" d="M288.53,148.62h-12.02c2.97,3.31,6.09,9.75-.18,19.69,0,0-16.06,22.31-21.42,26.74,2.87,.75,5.65,1.66,9.64-.33,2.23-1.11,4.32-2.51,6.21-4.19l24.69-23.73c11.26-10,8.15-18.18-6.91-18.18Z"/><path class="cls-11" d="M326.66,272.97l-103.09-104.65c-6.27-9.95-3.16-16.39-.18-19.69h-11.35c-7.53,0-12.57,2-13.95,6.01-1.58,4.61,1.67,9.68,7.01,14.35,0,0,36.45,33.62,47.55,44.73,11.1,11.1,65.1,65.14,65.1,65.14,5.42,7.05,6.07,18.77,.89,23.55,.43-.28,.86-.57,1.28-.89,8.91-6.86,13.6-19.64,6.74-28.55Z"/><path class="cls-7" d="M254.9,195.06s-11.65-4.53-8.13-10.62c3.52-6.1,9.78-8.76,16.76-5.59s3.9,2.32,3.9,2.32l-1.05,1.27s-7.3-4.86-11.97,.03,3.33,11.49,3.33,11.49l-2.78,1.12-.08-.02Z"/></g><g><path class="cls-3" d="M180.93,374.35c.22,.12,.35,.3,.38,.53,.03,.24-.03,.45-.19,.65-.12,.17-.27,.26-.45,.28-.18,.01-.37-.03-.55-.12-.43-.26-.9-.47-1.4-.62-.5-.15-1.02-.23-1.57-.23-.77,0-1.48,.13-2.13,.4-.64,.27-1.2,.65-1.67,1.13-.47,.49-.84,1.06-1.1,1.73-.26,.67-.39,1.41-.39,2.22,0,.87,.14,1.64,.41,2.32,.28,.68,.65,1.26,1.13,1.74,.48,.48,1.04,.84,1.67,1.09,.64,.25,1.33,.37,2.08,.37,.54,0,1.06-.07,1.55-.22s.97-.35,1.42-.63c.18-.09,.37-.12,.55-.1,.18,.03,.34,.12,.47,.28,.16,.21,.22,.43,.18,.66-.04,.23-.16,.4-.37,.5-.33,.2-.7,.38-1.12,.54-.42,.16-.86,.29-1.31,.38-.45,.09-.91,.14-1.37,.14-.94,0-1.84-.17-2.68-.49-.84-.33-1.58-.8-2.22-1.42-.64-.62-1.15-1.36-1.53-2.23s-.56-1.85-.56-2.94c0-1.02,.18-1.96,.53-2.81,.35-.85,.85-1.59,1.49-2.22,.64-.63,1.38-1.12,2.22-1.48,.85-.35,1.76-.53,2.75-.53,.68,0,1.35,.09,2,.28,.65,.18,1.24,.45,1.78,.79Z"/><path class="cls-3" d="M201.04,380.34c0,1.01-.16,1.95-.49,2.8s-.79,1.61-1.38,2.25-1.29,1.14-2.11,1.5c-.81,.35-1.7,.53-2.66,.53s-1.86-.18-2.67-.53c-.81-.35-1.51-.85-2.1-1.5s-1.05-1.39-1.38-2.25c-.33-.86-.49-1.79-.49-2.8s.16-1.96,.49-2.82c.33-.86,.79-1.61,1.38-2.24,.59-.64,1.29-1.13,2.1-1.49,.81-.35,1.7-.53,2.67-.53s1.84,.18,2.66,.53c.81,.35,1.52,.85,2.11,1.49,.59,.64,1.05,1.38,1.38,2.24s.49,1.8,.49,2.82Zm-1.69,0c0-1.08-.21-2.03-.64-2.85-.43-.83-1.01-1.48-1.74-1.95-.73-.47-1.59-.71-2.56-.71s-1.83,.24-2.57,.71c-.74,.47-1.32,1.12-1.74,1.95-.42,.83-.63,1.78-.63,2.85s.21,2.01,.63,2.84,1,1.49,1.74,1.96c.74,.47,1.6,.71,2.57,.71s1.82-.24,2.56-.71,1.32-1.12,1.74-1.96,.64-1.78,.64-2.84Z"/><path class="cls-3" d="M216.17,385.67c.22,0,.41,.08,.57,.23,.16,.15,.24,.34,.24,.56s-.08,.41-.24,.55c-.16,.14-.35,.22-.57,.22h-6.81c-.22,0-.41-.08-.56-.24s-.23-.35-.23-.57v-12.18c0-.22,.08-.41,.24-.56,.16-.15,.35-.23,.59-.23,.22,0,.41,.08,.57,.23,.16,.15,.24,.34,.24,.56v11.79l-.39-.35h6.36Z"/><path class="cls-3" d="M231.76,385.67c.22,0,.41,.08,.57,.23,.16,.15,.24,.34,.24,.56s-.08,.41-.24,.55c-.16,.14-.35,.22-.57,.22h-6.81c-.22,0-.41-.08-.56-.24s-.23-.35-.23-.57v-12.18c0-.22,.08-.41,.24-.56,.16-.15,.35-.23,.59-.23,.22,0,.41,.08,.57,.23,.16,.15,.24,.34,.24,.56v11.79l-.39-.35h6.36Z"/><path class="cls-3" d="M240.54,373.45h7.01c.22,0,.41,.07,.57,.22,.16,.14,.24,.33,.24,.55s-.08,.4-.24,.54c-.16,.14-.35,.21-.57,.21h-6.34l.18-.33v4.98l-.2-.22h5.47c.22,0,.41,.07,.57,.22,.16,.14,.24,.33,.24,.55s-.08,.4-.24,.54c-.16,.14-.35,.21-.57,.21h-5.41l.14-.18v5.1l-.12-.14h6.28c.22,0,.41,.08,.57,.24,.16,.16,.24,.33,.24,.53,0,.22-.08,.41-.24,.55-.16,.14-.35,.22-.57,.22h-7.01c-.22,0-.41-.08-.56-.24s-.23-.35-.23-.57v-12.18c0-.22,.08-.41,.23-.56,.15-.15,.34-.23,.56-.23Z"/><path class="cls-3" d="M265.8,374.35c.22,.12,.35,.3,.38,.53,.03,.24-.03,.45-.19,.65-.12,.17-.27,.26-.45,.28-.18,.01-.37-.03-.55-.12-.43-.26-.9-.47-1.4-.62-.5-.15-1.02-.23-1.57-.23-.77,0-1.48,.13-2.13,.4-.64,.27-1.2,.65-1.67,1.13-.47,.49-.84,1.06-1.1,1.73-.26,.67-.39,1.41-.39,2.22,0,.87,.14,1.64,.41,2.32,.28,.68,.65,1.26,1.13,1.74,.48,.48,1.04,.84,1.67,1.09,.64,.25,1.33,.37,2.08,.37,.54,0,1.06-.07,1.55-.22s.97-.35,1.42-.63c.18-.09,.37-.12,.55-.1,.18,.03,.34,.12,.47,.28,.16,.21,.22,.43,.18,.66-.04,.23-.16,.4-.37,.5-.33,.2-.7,.38-1.12,.54-.42,.16-.86,.29-1.31,.38-.45,.09-.91,.14-1.37,.14-.94,0-1.84-.17-2.68-.49-.84-.33-1.58-.8-2.22-1.42-.64-.62-1.15-1.36-1.53-2.23s-.56-1.85-.56-2.94c0-1.02,.18-1.96,.53-2.81,.35-.85,.85-1.59,1.49-2.22,.64-.63,1.38-1.12,2.22-1.48,.85-.35,1.76-.53,2.75-.53,.68,0,1.35,.09,2,.28,.65,.18,1.24,.45,1.78,.79Z"/><path class="cls-3" d="M273.2,374.94c-.22,0-.41-.07-.56-.21s-.23-.32-.23-.54,.08-.4,.23-.54,.34-.21,.56-.21h9.15c.22,0,.41,.07,.57,.21s.24,.32,.24,.54c0,.24-.08,.42-.24,.55-.16,.13-.35,.2-.57,.2h-9.15Zm4.57,12.28c-.24,0-.43-.08-.59-.24s-.24-.35-.24-.57v-12.16h1.67v12.16c0,.22-.08,.41-.24,.57-.16,.16-.36,.24-.61,.24Z"/><path class="cls-3" d="M292.07,386.42c0,.22-.08,.41-.25,.57-.16,.16-.36,.24-.58,.24-.25,0-.45-.08-.59-.24-.14-.16-.22-.35-.22-.57v-12.16c0-.24,.08-.43,.24-.58,.16-.15,.35-.23,.59-.23,.22,0,.41,.08,.57,.23,.16,.15,.24,.34,.24,.58v12.16Z"/><path class="cls-3" d="M312.87,380.34c0,1.01-.16,1.95-.49,2.8s-.79,1.61-1.38,2.25-1.29,1.14-2.11,1.5c-.81,.35-1.7,.53-2.66,.53s-1.86-.18-2.67-.53c-.81-.35-1.51-.85-2.1-1.5s-1.05-1.39-1.38-2.25c-.33-.86-.49-1.79-.49-2.8s.16-1.96,.49-2.82c.33-.86,.79-1.61,1.38-2.24,.59-.64,1.29-1.13,2.1-1.49,.81-.35,1.7-.53,2.67-.53s1.84,.18,2.66,.53c.81,.35,1.52,.85,2.11,1.49,.59,.64,1.05,1.38,1.38,2.24s.49,1.8,.49,2.82Zm-1.69,0c0-1.08-.21-2.03-.64-2.85-.43-.83-1.01-1.48-1.74-1.95-.73-.47-1.59-.71-2.56-.71s-1.83,.24-2.57,.71c-.74,.47-1.32,1.12-1.74,1.95-.42,.83-.63,1.78-.63,2.85s.21,2.01,.63,2.84,1,1.49,1.74,1.96c.74,.47,1.6,.71,2.57,.71s1.82-.24,2.56-.71,1.32-1.12,1.74-1.96,.64-1.78,.64-2.84Z"/><path class="cls-3" d="M330.6,373.45c.22,0,.4,.07,.53,.21,.13,.14,.2,.31,.2,.52v12.22c0,.25-.08,.45-.24,.6-.16,.15-.35,.23-.57,.23-.12,0-.24-.02-.35-.07-.12-.04-.21-.11-.28-.19l-8.42-11.14,.39-.24v10.9c0,.21-.07,.38-.21,.52s-.32,.21-.54,.21c-.21,0-.38-.07-.51-.21-.13-.14-.2-.31-.2-.52v-12.26c0-.24,.08-.43,.23-.57s.33-.22,.54-.22c.12,0,.24,.02,.36,.07,.12,.05,.22,.12,.29,.21l8.3,10.98-.26,.31v-10.84c0-.21,.07-.38,.21-.52s.31-.21,.52-.21Z"/></g><g><path class="cls-3" d="M175.84,327.58v23.73h-5.53l-10.48-12.65v12.65h-6.58v-23.73h5.53l10.48,12.65v-12.65h6.58Z"/><path class="cls-3" d="M199.64,346.13v5.19h-19.05v-23.73h18.61v5.19h-11.97v4h10.54v5.02h-10.54v4.34h12.41Z"/><path class="cls-3" d="M219.26,346.7h-10.04l-1.86,4.61h-6.85l10.48-23.73h6.61l10.51,23.73h-6.98l-1.86-4.61Zm-1.97-4.95l-3.05-7.59-3.05,7.59h6.1Z"/><path class="cls-3" d="M240.38,345.01h-3.66v6.31h-6.71v-23.73h10.85c6.48,0,10.54,3.36,10.54,8.78,0,3.49-1.7,6.07-4.65,7.49l5.12,7.46h-7.19l-4.31-6.31Zm.07-12.14h-3.73v6.95h3.73c2.78,0,4.17-1.29,4.17-3.46s-1.39-3.49-4.17-3.49Z"/><path class="cls-3" d="M267.46,342.8v8.51h-6.71v-8.61l-9.05-15.12h7.09l5.63,9.43,5.63-9.43h6.51l-9.09,15.22Z"/><path class="cls-3" d="M288,337.92h9.12v2.81h-9.12v-2.81Z"/><path class="cls-3" d="M310.99,341.38h4.97v5.08l2.48-2.42,2.48,2.42v-4.68l-1.24-.31-8.69-2.62v-12.36h14.9v9.93h-5.79v-3.31h.83v-3.31h-4.97v7.23l4.97,1.36,4.97,1.36v11.57h-4.97l-2.48-2.42-2.48,2.42h-4.97v-9.93Zm19.86,9.93v-20.69h-4.14v-4.14h9.1v24.83h-4.97Z"/><path class="cls-3" d="M345.75,326.49v24.83h-6.62v-3.31h1.66v-21.52h4.97Z"/><path class="cls-3" d="M345.67,319.09v-3.36h2.57v6.62h-11.59v-4.14h7.37l1.66,.88Z"/></g></g></g></svg>