<?xml version="1.0" encoding="UTF-8"?><svg id="TEXTS" xmlns="http://www.w3.org/2000/svg" xmlns:xlink="http://www.w3.org/1999/xlink" viewBox="0 0 22.67 5.79"><defs><style>.cls-1{fill:url(#linear-gradient-2);}.cls-2{fill:#fff;}.cls-3{fill:url(#linear-gradient-6);}.cls-4{fill:url(#linear-gradient-5);}.cls-5{fill:url(#linear-gradient-7);}.cls-6{fill:url(#linear-gradient-9);}.cls-7{fill:url(#linear-gradient-3);}.cls-8{fill:url(#linear-gradient);}.cls-9{fill:url(#linear-gradient-4);}.cls-10{fill:url(#linear-gradient-8);}</style><linearGradient id="linear-gradient" x1="2.8" y1="1.5" x2="2.8" y2=".76" gradientUnits="userSpaceOnUse"><stop offset="0" stop-color="#f22895"/><stop offset="1" stop-color="#ffa849"/></linearGradient><linearGradient id="linear-gradient-2" x1="2.88" y1=".66" x2="2.91" y2="1.08" xlink:href="#linear-gradient"/><linearGradient id="linear-gradient-3" x1="1.09" y1="4.8" x2="2.83" y2="4.8" gradientUnits="userSpaceOnUse"><stop offset="0" stop-color="#ffd99b"/><stop offset="1" stop-color="#ff56b9"/></linearGradient><linearGradient id="linear-gradient-4" x1="-624.24" y1="-24.41" x2="-622.39" y2="-24.41" gradientTransform="translate(-563.69 29.66) rotate(-180) scale(.91 -1.02)" xlink:href="#linear-gradient-3"/><linearGradient id="linear-gradient-5" x1="1.85" y1="3.23" x2="1.85" y2="4.64" xlink:href="#linear-gradient"/><linearGradient id="linear-gradient-6" x1="1.86" y1="1.74" x2="3.46" y2="1.74" xlink:href="#linear-gradient"/><linearGradient id="linear-gradient-7" x1="3.43" y1="1.59" x2="3.43" y2="2.84" xlink:href="#linear-gradient"/><linearGradient id="linear-gradient-8" x1="1.73" y1="1.59" x2="3.93" y2="4.04" xlink:href="#linear-gradient-3"/><linearGradient id="linear-gradient-9" x1="2.96" y1="2.23" x2="2.96" y2="2.69" xlink:href="#linear-gradient"/></defs><g><g><path class="cls-8" d="M2.83,1.68s0,0,0,0c-.05,0-.1-.05-.09-.11,0-.05,0-.09,0-.1-.01-.01-.02-.02-.04-.03-.04-.03-.09-.06-.17-.14-.12-.13-.12-.28-.12-.31,0-.22,.18-.4,.41-.4s.41,.18,.41,.41c0,.06-.04,.1-.1,.1s-.1-.04-.1-.1c0-.11-.09-.21-.21-.21s-.21,.09-.21,.21c0,0,0,0,0,0,0,0,0,.08,.07,.16,.06,.07,.1,.09,.14,.12,.02,.02,.05,.03,.07,.06,.06,.06,.07,.18,.06,.26,0,.05-.05,.09-.1,.09Z"/><path class="cls-1" d="M2.8,.78c.11,0,.21,.09,.21,.21,0,.06,.04,.1,.1,.1,.04,0,.08-.03,.09-.07,0-.02,0-.03,0-.05,0-.06-.02-.11-.04-.16-.05-.09-.15-.15-.26-.15-.16,0-.29,.12-.3,.28,.02-.09,.1-.16,.2-.16Z"/></g><path class="cls-7" d="M2.83,4.67l-.1,.08c-.27,.2-.76,.23-1.1,.08-.22-.1-.41-.25-.38-.4h-.01c-.27,.2-.12,.48,.22,.63,.34,.15,.84,.11,1.1-.08l.27-.2v-.11Z"/><path class="cls-9" d="M2.83,4.67l.1,.08c.26,.2,.73,.24,1.07,.08,.22-.1,.39-.25,.37-.41h0c.26,.21,.12,.49-.21,.65-.33,.15-.81,.12-1.07-.08l-.26-.21v-.11Z"/><path class="cls-4" d="M2.64,2.99h-.12s-.13,0-.19,.05c-.06,.06-1.19,1.28-1.19,1.28-.15,.2-.07,.48,.13,.63,0,0,.02,.01,.03,.02-.1-.15-.1-.36,.02-.52l1.33-1.46Z"/><path class="cls-3" d="M3.65,1.6H1.97c-.17,0-.28,.04-.31,.13-.02,.05,0,.1,.01,.15H3.9c.1-.16,0-.28-.26-.28Z"/><path class="cls-5" d="M3.65,1.6h-.26c.07,.07,.13,.21,0,.43,0,0-.35,.49-.47,.59,.06,.02,.12,.04,.21,0,.05-.02,.09-.06,.14-.09l.54-.52c.25-.22,.18-.4-.15-.4Z"/><path class="cls-10" d="M4.48,4.33L2.22,2.03c-.14-.22-.07-.36,0-.43h-.25c-.17,0-.28,.04-.31,.13-.03,.1,.04,.21,.15,.31,0,0,.8,.74,1.04,.98,.24,.24,1.43,1.43,1.43,1.43,.12,.15,.13,.41,.02,.52,0,0,.02-.01,.03-.02,.2-.15,.3-.43,.15-.63Z"/><path class="cls-6" d="M2.91,2.62s-.26-.1-.18-.23,.21-.19,.37-.12,.09,.05,.09,.05l-.02,.03s-.16-.11-.26,0,.07,.25,.07,.25l-.06,.02h0Z"/></g><g><path class="cls-2" d="M11.42,4.42s.01,.01,.02,.02,0,.02,0,.03c0,0-.01,.01-.02,.01s-.02,0-.02,0c-.02-.01-.04-.02-.06-.03-.02,0-.04,0-.07,0-.03,0-.06,0-.09,.02-.03,.01-.05,.03-.07,.05-.02,.02-.04,.05-.05,.07-.01,.03-.02,.06-.02,.1,0,.04,0,.07,.02,.1,.01,.03,.03,.05,.05,.07s.04,.04,.07,.05,.06,.02,.09,.02c.02,0,.05,0,.07,0,.02,0,.04-.02,.06-.03,0,0,.02,0,.02,0s.01,0,.02,.01c0,0,0,.02,0,.03,0,0,0,.02-.02,.02-.01,0-.03,.02-.05,.02-.02,0-.04,.01-.06,.02s-.04,0-.06,0c-.04,0-.08,0-.11-.02s-.07-.03-.1-.06c-.03-.03-.05-.06-.07-.1-.02-.04-.02-.08-.02-.13,0-.04,0-.08,.02-.12,.02-.04,.04-.07,.06-.1,.03-.03,.06-.05,.1-.06s.08-.02,.12-.02c.03,0,.06,0,.09,.01s.05,.02,.08,.03Z"/><path class="cls-2" d="M12.28,4.68s0,.08-.02,.12c-.01,.04-.03,.07-.06,.1-.03,.03-.06,.05-.09,.06s-.07,.02-.11,.02-.08,0-.11-.02-.06-.04-.09-.06c-.03-.03-.04-.06-.06-.1-.01-.04-.02-.08-.02-.12s0-.08,.02-.12c.01-.04,.03-.07,.06-.1s.06-.05,.09-.06,.07-.02,.11-.02,.08,0,.11,.02,.06,.04,.09,.06,.04,.06,.06,.1c.01,.04,.02,.08,.02,.12Zm-.07,0s0-.09-.03-.12c-.02-.04-.04-.06-.07-.08-.03-.02-.07-.03-.11-.03s-.08,.01-.11,.03-.06,.05-.07,.08c-.02,.04-.03,.08-.03,.12s0,.09,.03,.12c.02,.04,.04,.06,.07,.08,.03,.02,.07,.03,.11,.03s.08-.01,.11-.03c.03-.02,.06-.05,.07-.08,.02-.04,.03-.08,.03-.12Z"/><path class="cls-2" d="M12.93,4.91s.02,0,.02,0c0,0,.01,.01,.01,.02s0,.02-.01,.02-.02,0-.02,0h-.29s-.02,0-.02-.01,0-.01,0-.02v-.52s0-.02,.01-.02,.02,0,.03,0c0,0,.02,0,.02,0,0,0,0,.01,0,.02v.51l-.02-.02h.27Z"/><path class="cls-2" d="M13.6,4.91s.02,0,.02,0c0,0,.01,.01,.01,.02s0,.02-.01,.02-.02,0-.02,0h-.29s-.02,0-.02-.01,0-.01,0-.02v-.52s0-.02,.01-.02,.02,0,.03,0c0,0,.02,0,.02,0,0,0,0,.01,0,.02v.51l-.02-.02h.27Z"/><path class="cls-2" d="M13.97,4.38h.3s.02,0,.02,0,.01,.01,.01,.02c0,0,0,.02-.01,.02s-.01,0-.02,0h-.26s0,.2,0,.2h0s.23,0,.23,0c0,0,.02,0,.02,0,0,0,.01,.01,.01,.02s0,.02-.01,.02c0,0-.01,0-.02,0h-.23s0,.21,0,.21h0s.27,0,.27,0c0,0,.02,0,.02,.01s.01,.01,.01,.02c0,0,0,.02-.01,.02s-.01,0-.02,0h-.3s-.02,0-.02-.01,0-.01,0-.02v-.52s0-.02,0-.02,.01,0,.02,0Z"/><path class="cls-2" d="M15.05,4.42s.01,.01,.02,.02,0,.02,0,.03c0,0-.01,.01-.02,.01s-.02,0-.02,0c-.02-.01-.04-.02-.06-.03-.02,0-.04,0-.07,0-.03,0-.06,0-.09,.02-.03,.01-.05,.03-.07,.05-.02,.02-.04,.05-.05,.07-.01,.03-.02,.06-.02,.1,0,.04,0,.07,.02,.1,.01,.03,.03,.05,.05,.07s.04,.04,.07,.05,.06,.02,.09,.02c.02,0,.05,0,.07,0,.02,0,.04-.02,.06-.03,0,0,.02,0,.02,0s.01,0,.02,.01c0,0,0,.02,0,.03,0,0,0,.02-.02,.02-.01,0-.03,.02-.05,.02-.02,0-.04,.01-.06,.02s-.04,0-.06,0c-.04,0-.08,0-.11-.02s-.07-.03-.1-.06c-.03-.03-.05-.06-.07-.1-.02-.04-.02-.08-.02-.13,0-.04,0-.08,.02-.12,.02-.04,.04-.07,.06-.1,.03-.03,.06-.05,.1-.06s.08-.02,.12-.02c.03,0,.06,0,.09,.01s.05,.02,.08,.03Z"/><path class="cls-2" d="M15.37,4.45s-.02,0-.02,0,0-.01,0-.02c0,0,0-.02,0-.02s.01,0,.02,0h.39s.02,0,.02,0c0,0,.01,.01,.01,.02s0,.02-.01,.02c0,0-.01,0-.02,0h-.39Zm.2,.53s-.02,0-.03-.01-.01-.01-.01-.02v-.52h.07v.52s0,.02-.01,.02c0,0-.02,.01-.03,.01Z"/><path class="cls-2" d="M16.18,4.94s0,.02-.01,.02c0,0-.02,.01-.02,.01-.01,0-.02,0-.03-.01s0-.01,0-.02v-.52s0-.02,.01-.02,.02,0,.03,0c0,0,.02,0,.02,0,0,0,0,.01,0,.02v.52Z"/><path class="cls-2" d="M17.07,4.68s0,.08-.02,.12c-.01,.04-.03,.07-.06,.1-.03,.03-.06,.05-.09,.06s-.07,.02-.11,.02-.08,0-.11-.02-.06-.04-.09-.06c-.03-.03-.04-.06-.06-.1-.01-.04-.02-.08-.02-.12s0-.08,.02-.12c.01-.04,.03-.07,.06-.1s.06-.05,.09-.06,.07-.02,.11-.02,.08,0,.11,.02,.06,.04,.09,.06,.04,.06,.06,.1c.01,.04,.02,.08,.02,.12Zm-.07,0s0-.09-.03-.12c-.02-.04-.04-.06-.07-.08-.03-.02-.07-.03-.11-.03s-.08,.01-.11,.03-.06,.05-.07,.08c-.02,.04-.03,.08-.03,.12s0,.09,.03,.12c.02,.04,.04,.06,.07,.08,.03,.02,.07,.03,.11,.03s.08-.01,.11-.03c.03-.02,.06-.05,.07-.08,.02-.04,.03-.08,.03-.12Z"/><path class="cls-2" d="M17.83,4.38s.02,0,.02,0c0,0,0,.01,0,.02v.52s0,.02-.01,.03-.02,0-.02,0c0,0-.01,0-.02,0,0,0,0,0-.01,0l-.36-.48h.02s0,.46,0,.46c0,0,0,.02,0,.02s-.01,0-.02,0c0,0-.02,0-.02,0,0,0,0-.01,0-.02v-.53s0-.02,0-.02,.01,0,.02,0c0,0,.01,0,.02,0s0,0,.01,0l.36,.47h-.01s0-.45,0-.45c0,0,0-.02,0-.02s.01,0,.02,0Z"/></g><g><path class="cls-2" d="M8.69,1.6s.08,.02,.11,.04,.04,.07,.04,.11v1.63s-.02,.09-.05,.12c-.03,.03-.07,.05-.12,.05-.02,0-.05,0-.07-.01-.03,0-.04-.02-.06-.03l-1.1-1.39,.07-.04v1.33s-.01,.08-.04,.11-.07,.04-.11,.04-.08-.01-.11-.04-.04-.07-.04-.11V1.77s.02-.09,.05-.12c.03-.03,.07-.05,.12-.05,.03,0,.05,0,.08,.02s.05,.03,.06,.05l1.06,1.35-.05,.03V1.75s.01-.08,.04-.11,.06-.04,.11-.04Z"/><path class="cls-2" d="M9.43,1.6h.93s.09,.02,.12,.05c.03,.03,.05,.07,.05,.12s-.02,.08-.05,.11c-.03,.03-.07,.04-.12,.04h-.78l.02-.05v.54l-.02-.02h.65s.09,.02,.12,.05c.03,.03,.05,.07,.05,.12s-.02,.08-.05,.11c-.03,.03-.07,.04-.12,.04h-.64v-.02s.01,.56,.01,.56l-.02-.03h.78s.09,.02,.12,.05c.03,.03,.05,.07,.05,.11,0,.05-.02,.08-.05,.11-.03,.03-.07,.04-.12,.04h-.93s-.09-.02-.12-.05c-.03-.03-.05-.07-.05-.12V1.77s.02-.09,.05-.12c.03-.03,.07-.05,.12-.05Z"/><path class="cls-2" d="M11.57,2.03l-.6,1.42s-.03,.06-.06,.08c-.03,.02-.06,.03-.09,.03-.05,0-.09-.01-.11-.04-.02-.03-.04-.06-.04-.1,0-.02,0-.03,0-.05l.69-1.67s.04-.07,.07-.09,.06-.03,.1-.03c.03,0,.06,0,.09,.03s.05,.05,.06,.08l.69,1.63s.01,.05,.01,.07c0,.05-.02,.09-.05,.12-.03,.03-.07,.04-.11,.04-.03,0-.06-.01-.09-.03s-.05-.05-.06-.08l-.6-1.4,.08-.02Zm-.52,1.08l.15-.32h.75l.05,.32h-.96Z"/><path class="cls-2" d="M12.84,3.55c-.05,0-.1-.02-.14-.05-.04-.03-.06-.07-.06-.12V1.77s.02-.09,.05-.12c.03-.03,.07-.05,.12-.05h.8c.1,0,.19,.03,.27,.08,.08,.05,.15,.12,.2,.21,.05,.09,.08,.19,.08,.31,0,.07-.01,.14-.04,.21s-.07,.13-.12,.18c-.05,.05-.1,.1-.17,.13v-.06c.05,.03,.1,.06,.13,.1,.03,.04,.06,.08,.08,.12s.03,.09,.03,.14c0,.05,.01,.09,.02,.12,0,.04,0,.06,.02,.09,0,.02,.02,.04,.05,.06,.04,.02,.07,.06,.08,.1,.01,.05,0,.09-.03,.12-.02,.02-.05,.04-.08,.05s-.06,0-.09,0-.06-.02-.08-.03c-.03-.02-.06-.05-.09-.08-.03-.04-.06-.08-.08-.15-.02-.06-.03-.14-.03-.24,0-.03,0-.06-.02-.09-.01-.03-.03-.05-.05-.07s-.05-.03-.08-.04c-.03,0-.07-.02-.11-.02h-.56l.04-.06v.6s-.01,.09-.04,.12c-.03,.03-.06,.05-.11,.05Zm.11-1h.65s.07-.02,.1-.05,.06-.07,.08-.13c.02-.05,.03-.11,.03-.17,0-.08-.02-.15-.07-.21-.04-.05-.09-.08-.14-.08h-.64l.03-.09v.79l-.04-.07Z"/><path class="cls-2" d="M15.74,1.59s.08,.02,.12,.05c.03,.03,.05,.07,.05,.12,0,.02,0,.03,0,.05,0,.02-.01,.03-.02,.05l-.63,.91,.05-.19v.8s-.02,.09-.05,.12c-.03,.03-.07,.05-.11,.05-.05,0-.09-.02-.12-.05s-.05-.07-.05-.12v-.78l.02,.09-.6-.8s-.03-.05-.04-.07-.01-.04-.01-.06c0-.05,.02-.09,.06-.12,.04-.03,.08-.05,.12-.05,.05,0,.1,.03,.14,.08l.54,.74h-.08s.49-.73,.49-.73c.04-.06,.09-.08,.14-.08Z"/><path class="cls-2" d="M17.04,2.86s-.09-.02-.12-.05c-.03-.03-.05-.07-.05-.12s.02-.09,.05-.12c.03-.03,.07-.05,.12-.05h.48s.09,.02,.12,.05c.03,.03,.05,.07,.05,.12s-.02,.08-.05,.12c-.03,.03-.07,.05-.12,.05h-.48Z"/><path class="cls-2" d="M18.81,2.93c0-.09,.06-.14,.17-.14s.17,.05,.17,.14v.25l.27-.24,.27,.24v-.43l-.44-.12c-.29-.08-.44-.23-.44-.46v-.27c0-.27,.16-.41,.48-.41h.27c.32,0,.48,.14,.48,.41v.2c0,.09-.06,.14-.17,.14s-.17-.05-.17-.14v-.2c0-.09-.05-.14-.14-.14h-.27c-.09,0-.14,.05-.14,.14v.27c0,.12,.15,.22,.44,.3l.22,.06c.15,.04,.22,.1,.22,.19v.68c0,.09-.08,.14-.24,.14-.07,0-.15-.04-.24-.13l-.14-.13-.14,.13c-.09,.09-.17,.13-.24,.13-.16,0-.24-.05-.24-.14v-.48Zm1.7,.48V1.91c0-.09-.05-.14-.15-.14h-.05c-.09,0-.14-.05-.14-.14s.05-.14,.14-.14h.05c.33,0,.49,.14,.49,.41v1.5c0,.09-.06,.14-.17,.14s-.17-.05-.17-.14Z"/><path class="cls-2" d="M21.43,1.5c.11,0,.17,.05,.17,.14v1.77c0,.09-.07,.14-.2,.14h-.2c-.09,0-.14-.05-.14-.14s.05-.14,.14-.14c.05,0,.07-.02,.07-.07V1.64c0-.09,.06-.14,.17-.14Z"/><path class="cls-2" d="M21.54,.96v-.13c0-.09,.05-.14,.14-.14s.14,.05,.14,.14v.34s-.05,.07-.14,.07h-.68c-.09,0-.14-.05-.14-.14v-.07c0-.09,.05-.14,.14-.14h.27c.09,0,.18,.02,.27,.06Z"/></g></svg>